<svg width="49" height="41" viewBox="0 0 49 41" fill="none" xmlns="http://www.w3.org/2000/svg">
<path d="M11.4951 21.5566C11.4775 21.8613 11.4365 22.1689 11.3721 22.4795C11.3076 22.7842 11.2051 23.0596 11.0645 23.3057C10.9297 23.5518 10.751 23.7539 10.5283 23.9121C10.3057 24.0645 10.0303 24.1406 9.70215 24.1406C9.49707 24.1406 9.31543 24.1084 9.15723 24.0439C9.00488 23.9854 8.87012 23.9062 8.75293 23.8066C8.6416 23.7012 8.54785 23.584 8.47168 23.4551C8.39551 23.3203 8.33105 23.1797 8.27832 23.0332C8.07324 23.373 7.83008 23.6367 7.54883 23.8242C7.27344 24.0059 6.99805 24.0967 6.72266 24.0967C6.5 24.0967 6.29785 24.0557 6.11621 23.9736C5.94043 23.8916 5.78809 23.7773 5.65918 23.6309C5.53613 23.4785 5.43945 23.2969 5.36914 23.0859C5.29883 22.875 5.26367 22.6377 5.26367 22.374C5.26367 21.9346 5.30176 21.5566 5.37793 21.2402C5.45996 20.918 5.54785 20.6543 5.6416 20.4492C5.74121 20.2441 5.83203 20.0918 5.91406 19.9922C5.99609 19.8867 6.03711 19.834 6.03711 19.834C6.06641 19.7988 6.10156 19.7725 6.14258 19.7549C6.18945 19.7373 6.23633 19.7285 6.2832 19.7285C6.37695 19.7285 6.45312 19.7637 6.51172 19.834C6.57617 19.8984 6.6084 19.9746 6.6084 20.0625C6.6084 20.127 6.58496 20.1973 6.53809 20.2734C6.51465 20.3086 6.46777 20.376 6.39746 20.4756C6.33301 20.5752 6.26562 20.71 6.19531 20.8799C6.125 21.0498 6.06055 21.2578 6.00195 21.5039C5.94922 21.75 5.92285 22.04 5.92285 22.374C5.92285 22.7197 5.99316 22.9834 6.13379 23.165C6.27441 23.3408 6.4707 23.4287 6.72266 23.4287C6.8457 23.4287 6.98047 23.3965 7.12695 23.332C7.27344 23.2617 7.41113 23.1562 7.54004 23.0156C7.66895 22.875 7.78027 22.6963 7.87402 22.4795C7.96777 22.2627 8.02637 22.0078 8.0498 21.7148L8.16406 20.2031C8.16992 20.1152 8.20508 20.042 8.26953 19.9834C8.33984 19.9248 8.41895 19.8955 8.50684 19.8955C8.60645 19.8955 8.68555 19.9336 8.74414 20.0098C8.80273 20.0801 8.83203 20.1621 8.83203 20.2559L8.73535 21.7061C8.71777 22.0166 8.72656 22.2832 8.76172 22.5059C8.80273 22.7285 8.86719 22.9131 8.95508 23.0596C9.04297 23.2002 9.15137 23.3057 9.28027 23.376C9.40918 23.4404 9.55273 23.4727 9.71094 23.4727C9.92188 23.4727 10.1006 23.4111 10.2471 23.2881C10.3936 23.165 10.5107 22.998 10.5986 22.7871C10.6865 22.5762 10.748 22.333 10.7832 22.0576C10.8242 21.7764 10.8447 21.4805 10.8447 21.1699C10.8447 20.8008 10.8242 20.4932 10.7832 20.2471C10.7422 20.001 10.7217 19.8369 10.7217 19.7549C10.7217 19.667 10.7539 19.5908 10.8184 19.5264C10.8828 19.4561 10.9619 19.4209 11.0557 19.4209C11.1377 19.4209 11.208 19.4473 11.2666 19.5C11.3252 19.5469 11.3633 19.6113 11.3809 19.6934C11.3867 19.7168 11.4043 19.7842 11.4336 19.8955C11.4629 20.0068 11.5039 20.1416 11.5566 20.2998C11.6094 20.4521 11.6768 20.6162 11.7588 20.792C11.8467 20.9619 11.9492 21.1201 12.0664 21.2666C12.1895 21.4131 12.3271 21.5361 12.4795 21.6357C12.6377 21.7295 12.8164 21.7764 13.0156 21.7764C13.127 21.7764 13.2207 21.7559 13.2969 21.7148C13.3789 21.668 13.4463 21.6152 13.499 21.5566C13.5518 21.498 13.5898 21.4424 13.6133 21.3896C13.6426 21.3369 13.6602 21.3047 13.666 21.293C13.6953 21.2285 13.7363 21.1787 13.7891 21.1436C13.8477 21.1025 13.9092 21.082 13.9736 21.082C14.0732 21.082 14.1523 21.1201 14.2109 21.1963C14.2754 21.2666 14.3076 21.3428 14.3076 21.4248C14.3076 21.4951 14.2754 21.5889 14.2109 21.7061C14.1523 21.8232 14.0674 21.9375 13.9561 22.0488C13.8447 22.1543 13.707 22.248 13.543 22.3301C13.3848 22.4062 13.209 22.4443 13.0156 22.4443C12.8457 22.4443 12.6875 22.4209 12.541 22.374C12.3945 22.3213 12.2568 22.2539 12.1279 22.1719C12.0049 22.0898 11.8906 21.9961 11.7852 21.8906C11.6797 21.7852 11.583 21.6738 11.4951 21.5566ZM20.4775 21.5479C20.4541 21.5947 20.4043 21.6943 20.3281 21.8467C20.2578 21.9932 20.1641 22.1631 20.0469 22.3564C19.9355 22.5498 19.8037 22.752 19.6514 22.9629C19.499 23.1738 19.3291 23.3672 19.1416 23.543C18.9541 23.7188 18.752 23.8652 18.5352 23.9824C18.3184 24.0938 18.0898 24.1494 17.8496 24.1494C17.5098 24.1494 17.2227 24.041 16.9883 23.8242C16.7598 23.6074 16.5928 23.335 16.4873 23.0068C16.2881 23.3408 16.0508 23.6074 15.7754 23.8066C15.5 24 15.2246 24.0967 14.9492 24.0967C14.7324 24.0967 14.5361 24.0586 14.3604 23.9824C14.1846 23.9004 14.0352 23.7891 13.9121 23.6484C13.7891 23.502 13.6924 23.332 13.6221 23.1387C13.5576 22.9453 13.5254 22.7344 13.5254 22.5059C13.5254 22.0488 13.6016 21.6475 13.7539 21.3018C13.9121 20.9502 14.1113 20.6572 14.3516 20.4229C14.5918 20.1885 14.8555 20.0127 15.1426 19.8955C15.4355 19.7783 15.7168 19.7197 15.9863 19.7197C16.168 19.7197 16.335 19.7461 16.4873 19.7988C16.6396 19.8457 16.7686 19.8984 16.874 19.957C16.9854 20.0156 17.0703 20.0713 17.1289 20.124C17.1875 20.1709 17.2197 20.1973 17.2256 20.2031C17.29 20.2793 17.3223 20.3584 17.3223 20.4404C17.3223 20.5283 17.29 20.6074 17.2256 20.6777C17.1611 20.7422 17.085 20.7744 16.9971 20.7744C16.9033 20.7744 16.8242 20.7422 16.7598 20.6777C16.748 20.666 16.7217 20.6455 16.6807 20.6162C16.6396 20.5811 16.584 20.5459 16.5137 20.5107C16.4434 20.4756 16.3584 20.4463 16.2588 20.4229C16.165 20.3936 16.0566 20.3789 15.9336 20.3789C15.752 20.3789 15.5586 20.4199 15.3535 20.502C15.1484 20.584 14.9609 20.7129 14.791 20.8887C14.6211 21.0586 14.4775 21.2754 14.3604 21.5391C14.249 21.7969 14.1934 22.1045 14.1934 22.4619C14.1934 22.5732 14.2051 22.6875 14.2285 22.8047C14.252 22.916 14.293 23.0186 14.3516 23.1123C14.4102 23.2061 14.4893 23.2822 14.5889 23.3408C14.6885 23.3994 14.8115 23.4287 14.958 23.4287C15.0635 23.4287 15.1836 23.3936 15.3184 23.3232C15.459 23.2529 15.5908 23.1445 15.7139 22.998C15.8428 22.8516 15.957 22.667 16.0566 22.4443C16.1621 22.2217 16.2354 21.958 16.2764 21.6533C16.2881 21.5713 16.3262 21.5039 16.3906 21.4512C16.4551 21.3926 16.5312 21.3633 16.6191 21.3633C16.7012 21.3633 16.7715 21.3955 16.8301 21.46C16.8945 21.5244 16.9297 21.5977 16.9355 21.6797C16.9414 21.791 16.9531 21.9492 16.9707 22.1543C16.9883 22.3535 17.0264 22.5527 17.085 22.752C17.1494 22.9512 17.2432 23.124 17.3662 23.2705C17.4893 23.417 17.6592 23.4902 17.876 23.4902C18.0166 23.4902 18.1543 23.4521 18.2891 23.376C18.4297 23.2998 18.5645 23.2002 18.6934 23.0771C18.8281 22.9482 18.9541 22.8047 19.0713 22.6465C19.1943 22.4824 19.3057 22.3184 19.4053 22.1543C19.5049 21.9902 19.5928 21.832 19.6689 21.6797C19.7451 21.5273 19.8096 21.3955 19.8623 21.2842C19.8916 21.2197 19.9326 21.1699 19.9854 21.1348C20.0439 21.0996 20.1055 21.082 20.1699 21.082C20.2695 21.082 20.3486 21.1201 20.4072 21.1963C20.4717 21.2666 20.5039 21.3428 20.5039 21.4248C20.5039 21.4658 20.4951 21.5068 20.4775 21.5479ZM21.3037 17.1006C21.3037 17.3232 21.2246 17.5137 21.0664 17.6719C20.9141 17.8242 20.7266 17.9004 20.5039 17.9004C20.2812 17.9004 20.0908 17.8242 19.9326 17.6719C19.7803 17.5137 19.7041 17.3232 19.7041 17.1006C19.7041 16.9893 19.7246 16.8867 19.7656 16.793C19.8066 16.6934 19.8623 16.6084 19.9326 16.5381C20.0088 16.4619 20.0938 16.4033 20.1875 16.3623C20.2871 16.3213 20.3926 16.3008 20.5039 16.3008C20.6152 16.3008 20.7178 16.3213 20.8115 16.3623C20.9111 16.4033 20.9961 16.4619 21.0664 16.5381C21.1426 16.6084 21.2012 16.6934 21.2422 16.793C21.2832 16.8867 21.3037 16.9893 21.3037 17.1006ZM19.8799 22.251C19.8799 21.4072 19.9326 20.5664 20.0381 19.7285C20.0498 19.6465 20.085 19.5762 20.1436 19.5176C20.208 19.4531 20.29 19.4209 20.3896 19.4209C20.4775 19.4209 20.5508 19.4561 20.6094 19.5264C20.668 19.5908 20.6973 19.667 20.6973 19.7549C20.6973 19.79 20.6885 19.8955 20.6709 20.0713C20.6592 20.2471 20.6416 20.458 20.6182 20.7041C20.6006 20.9443 20.583 21.2021 20.5654 21.4775C20.5537 21.7471 20.5479 21.9961 20.5479 22.2246C20.5479 22.5352 20.5771 22.7871 20.6357 22.9805C20.7002 23.168 20.7793 23.3145 20.873 23.4199C20.9727 23.5254 21.0752 23.5957 21.1807 23.6309C21.292 23.666 21.3975 23.6836 21.4971 23.6836C21.6611 23.6836 21.8311 23.625 22.0068 23.5078C22.1826 23.3906 22.3613 23.2266 22.543 23.0156C22.7305 22.8047 22.918 22.5527 23.1055 22.2598C23.293 21.9609 23.4775 21.6299 23.6592 21.2666C23.6885 21.208 23.7295 21.1641 23.7822 21.1348C23.835 21.0996 23.8936 21.082 23.958 21.082C24.0518 21.082 24.1279 21.1172 24.1865 21.1875C24.251 21.2578 24.2832 21.334 24.2832 21.416C24.2832 21.4746 24.2715 21.5244 24.248 21.5654C24.1777 21.7002 24.0898 21.8643 23.9844 22.0576C23.8789 22.251 23.7588 22.4502 23.624 22.6553C23.4893 22.8604 23.3398 23.0654 23.1758 23.2705C23.0176 23.4697 22.8477 23.6514 22.666 23.8154C22.4844 23.9736 22.2939 24.1025 22.0947 24.2021C21.8955 24.3018 21.6934 24.3516 21.4883 24.3516C21.2246 24.3516 20.9932 24.2959 20.7939 24.1846C20.5947 24.0732 20.4248 23.9238 20.2842 23.7363C20.1494 23.5488 20.0469 23.3291 19.9766 23.0771C19.9121 22.8193 19.8799 22.5439 19.8799 22.251ZM20.8115 17.1006C20.8115 17.0186 20.7793 16.9482 20.7148 16.8896C20.6562 16.8252 20.5859 16.793 20.5039 16.793C20.4219 16.793 20.3516 16.8252 20.293 16.8896C20.2344 16.9482 20.2051 17.0186 20.2051 17.1006C20.2051 17.1826 20.2344 17.2529 20.293 17.3115C20.3516 17.3701 20.4219 17.3994 20.5039 17.3994C20.5859 17.3994 20.6562 17.3701 20.7148 17.3115C20.7793 17.2529 20.8115 17.1826 20.8115 17.1006ZM30.7695 15.2021C30.7695 15.2959 30.7373 15.3721 30.6729 15.4307C30.6084 15.4834 30.5293 15.5098 30.4355 15.5098H25.9795V15.6064C25.9795 15.9639 25.9531 16.3447 25.9004 16.749C25.8477 17.1533 25.7744 17.5576 25.6807 17.9619C25.5928 18.3604 25.4902 18.75 25.373 19.1309C25.2617 19.5117 25.1445 19.8633 25.0215 20.1855C24.9043 20.5078 24.7871 20.7891 24.6699 21.0293C24.5527 21.2637 24.4473 21.4395 24.3535 21.5566C24.4297 21.8262 24.5205 22.0781 24.626 22.3125C24.7314 22.541 24.8486 22.7432 24.9775 22.9189C25.1123 23.0889 25.2559 23.2236 25.4082 23.3232C25.5605 23.4229 25.7246 23.4727 25.9004 23.4727C26.1055 23.4727 26.3076 23.3877 26.5068 23.2178C26.7119 23.042 26.8994 22.8369 27.0693 22.6025C27.2451 22.3623 27.3975 22.1221 27.5264 21.8818C27.6611 21.6357 27.7578 21.4395 27.8164 21.293C27.875 21.1523 27.9775 21.082 28.124 21.082C28.2236 21.082 28.3027 21.1172 28.3613 21.1875C28.4258 21.2578 28.458 21.334 28.458 21.416C28.458 21.457 28.4492 21.498 28.4316 21.5391C28.4141 21.5801 28.3701 21.6738 28.2998 21.8203C28.2354 21.9668 28.1475 22.1367 28.0361 22.3301C27.9307 22.5234 27.8047 22.7285 27.6582 22.9453C27.5176 23.1562 27.3564 23.3496 27.1748 23.5254C26.999 23.7012 26.8086 23.8477 26.6035 23.9648C26.3984 24.082 26.1816 24.1406 25.9531 24.1406C25.5488 24.1406 25.1855 24.0088 24.8633 23.7451C24.541 23.4814 24.2656 23.1123 24.0371 22.6377C23.8145 22.1631 23.6445 21.6006 23.5273 20.9502C23.4102 20.2998 23.3516 19.5879 23.3516 18.8145C23.3516 18.6211 23.3545 18.3955 23.3604 18.1377C23.3662 17.874 23.3779 17.5986 23.3955 17.3115C23.4131 17.0186 23.4395 16.7197 23.4746 16.415C23.5098 16.1045 23.5566 15.8027 23.6152 15.5098H20.46C20.3662 15.5098 20.2871 15.4834 20.2227 15.4307C20.1582 15.3721 20.126 15.2959 20.126 15.2021C20.126 15.1084 20.1582 15.0352 20.2227 14.9824C20.2871 14.9238 20.3662 14.8945 20.46 14.8945H23.7646C23.8232 14.6836 23.8906 14.4902 23.9668 14.3145C24.0488 14.1387 24.1396 13.9863 24.2393 13.8574C24.3447 13.7285 24.459 13.6289 24.582 13.5586C24.7109 13.4824 24.8516 13.4443 25.0039 13.4443C25.1504 13.4443 25.2764 13.4824 25.3818 13.5586C25.4932 13.6289 25.5869 13.7285 25.6631 13.8574C25.7393 13.9863 25.7979 14.1387 25.8389 14.3145C25.8857 14.4902 25.9209 14.6836 25.9443 14.8945H30.4355C30.5293 14.8945 30.6084 14.9238 30.6729 14.9824C30.7373 15.0352 30.7695 15.1084 30.7695 15.2021ZM24.1514 20.6777C24.3271 20.291 24.4854 19.875 24.626 19.4297C24.7725 18.9785 24.8955 18.5244 24.9951 18.0674C25.1006 17.6104 25.1797 17.1621 25.2324 16.7227C25.291 16.2832 25.3203 15.8789 25.3203 15.5098H24.2832C24.2012 15.873 24.1338 16.3242 24.0811 16.8633C24.0342 17.3965 24.0107 18.0469 24.0107 18.8145C24.0107 19.2422 24.0225 19.6025 24.0459 19.8955C24.0693 20.1826 24.1045 20.4434 24.1514 20.6777ZM24.9688 14.1035C24.916 14.1035 24.8398 14.1621 24.7402 14.2793C24.6406 14.3906 24.541 14.5957 24.4414 14.8945H25.2852C25.2559 14.6484 25.2119 14.4551 25.1533 14.3145C25.1006 14.1738 25.0391 14.1035 24.9688 14.1035ZM24.292 21.3105V21.3193V21.3105ZM29.2842 17.1006C29.2842 17.3232 29.2051 17.5137 29.0469 17.6719C28.8945 17.8242 28.707 17.9004 28.4844 17.9004C28.2617 17.9004 28.0713 17.8242 27.9131 17.6719C27.7607 17.5137 27.6846 17.3232 27.6846 17.1006C27.6846 16.9893 27.7051 16.8867 27.7461 16.793C27.7871 16.6934 27.8428 16.6084 27.9131 16.5381C27.9893 16.4619 28.0742 16.4033 28.168 16.3623C28.2676 16.3213 28.373 16.3008 28.4844 16.3008C28.5957 16.3008 28.6982 16.3213 28.792 16.3623C28.8916 16.4033 28.9766 16.4619 29.0469 16.5381C29.123 16.6084 29.1816 16.6934 29.2227 16.793C29.2637 16.8867 29.2842 16.9893 29.2842 17.1006ZM27.8604 22.251C27.8604 21.4072 27.9131 20.5664 28.0186 19.7285C28.0303 19.6465 28.0654 19.5762 28.124 19.5176C28.1885 19.4531 28.2705 19.4209 28.3701 19.4209C28.458 19.4209 28.5312 19.4561 28.5898 19.5264C28.6484 19.5908 28.6777 19.667 28.6777 19.7549C28.6777 19.79 28.6689 19.8955 28.6514 20.0713C28.6396 20.2471 28.6221 20.458 28.5986 20.7041C28.5811 20.9443 28.5635 21.2021 28.5459 21.4775C28.5342 21.7471 28.5283 21.9961 28.5283 22.2246C28.5283 22.5352 28.5576 22.7871 28.6162 22.9805C28.6807 23.168 28.7598 23.3145 28.8535 23.4199C28.9531 23.5254 29.0557 23.5957 29.1611 23.6309C29.2725 23.666 29.3779 23.6836 29.4775 23.6836C29.6416 23.6836 29.8115 23.625 29.9873 23.5078C30.1631 23.3906 30.3418 23.2266 30.5234 23.0156C30.7109 22.8047 30.8984 22.5527 31.0859 22.2598C31.2734 21.9609 31.458 21.6299 31.6396 21.2666C31.6689 21.208 31.71 21.1641 31.7627 21.1348C31.8154 21.0996 31.874 21.082 31.9385 21.082C32.0322 21.082 32.1084 21.1172 32.167 21.1875C32.2314 21.2578 32.2637 21.334 32.2637 21.416C32.2637 21.4746 32.252 21.5244 32.2285 21.5654C32.1582 21.7002 32.0703 21.8643 31.9648 22.0576C31.8594 22.251 31.7393 22.4502 31.6045 22.6553C31.4697 22.8604 31.3203 23.0654 31.1562 23.2705C30.998 23.4697 30.8281 23.6514 30.6465 23.8154C30.4648 23.9736 30.2744 24.1025 30.0752 24.2021C29.876 24.3018 29.6738 24.3516 29.4688 24.3516C29.2051 24.3516 28.9736 24.2959 28.7744 24.1846C28.5752 24.0732 28.4053 23.9238 28.2646 23.7363C28.1299 23.5488 28.0273 23.3291 27.957 23.0771C27.8926 22.8193 27.8604 22.5439 27.8604 22.251ZM28.792 17.1006C28.792 17.0186 28.7598 16.9482 28.6953 16.8896C28.6367 16.8252 28.5664 16.793 28.4844 16.793C28.4023 16.793 28.332 16.8252 28.2734 16.8896C28.2148 16.9482 28.1855 17.0186 28.1855 17.1006C28.1855 17.1826 28.2148 17.2529 28.2734 17.3115C28.332 17.3701 28.4023 17.3994 28.4844 17.3994C28.5664 17.3994 28.6367 17.3701 28.6953 17.3115C28.7598 17.2529 28.792 17.1826 28.792 17.1006ZM33.582 23.209C33.6758 23.0156 33.7842 22.8047 33.9072 22.5762C34.0303 22.3418 34.1621 22.1074 34.3027 21.873C34.4434 21.6328 34.5898 21.3955 34.7422 21.1611C34.9004 20.9268 35.0645 20.7041 35.2344 20.4932C35.4043 20.2881 35.5742 20.1416 35.7441 20.0537C35.9199 19.96 36.084 19.9131 36.2363 19.9131C36.541 19.9131 36.7666 20.0244 36.9131 20.2471C37.0596 20.4697 37.1328 20.7451 37.1328 21.0732C37.1328 21.1494 37.127 21.2432 37.1152 21.3545C37.1094 21.46 37.1006 21.5742 37.0889 21.6973C37.083 21.8203 37.0742 21.9463 37.0625 22.0752C37.0566 22.1982 37.0537 22.3154 37.0537 22.4268C37.0537 22.5674 37.0596 22.7021 37.0713 22.8311C37.0889 22.96 37.1182 23.0742 37.1592 23.1738C37.2002 23.2676 37.2588 23.3438 37.335 23.4023C37.4111 23.4551 37.5107 23.4814 37.6338 23.4814C37.8564 23.4814 38.0732 23.3965 38.2842 23.2266C38.4951 23.0508 38.6885 22.8457 38.8643 22.6113C39.0459 22.3711 39.2012 22.1279 39.3301 21.8818C39.4648 21.6357 39.5645 21.4365 39.6289 21.2842C39.6582 21.2197 39.6992 21.1699 39.752 21.1348C39.8105 21.0996 39.8721 21.082 39.9365 21.082C40.0361 21.082 40.1152 21.1201 40.1738 21.1963C40.2383 21.2666 40.2705 21.3428 40.2705 21.4248C40.2705 21.4658 40.2617 21.5068 40.2441 21.5479C40.2207 21.5947 40.1738 21.6914 40.1035 21.8379C40.0332 21.9844 39.9395 22.1543 39.8223 22.3477C39.7109 22.5352 39.5791 22.7373 39.4268 22.9541C39.2744 23.165 39.1045 23.3584 38.917 23.5342C38.7354 23.71 38.5361 23.8564 38.3193 23.9736C38.1084 24.0908 37.8857 24.1494 37.6514 24.1494C37.3877 24.1494 37.1738 24.0996 37.0098 24C36.8457 23.8945 36.7168 23.7598 36.623 23.5957C36.5293 23.4258 36.4648 23.2412 36.4297 23.042C36.4004 22.8369 36.3857 22.6318 36.3857 22.4268C36.3857 22.3389 36.3887 22.2393 36.3945 22.1279C36.4062 22.0166 36.418 21.8994 36.4297 21.7764C36.4473 21.6533 36.459 21.5303 36.4648 21.4072C36.4766 21.2842 36.4824 21.167 36.4824 21.0557C36.4824 20.8682 36.4531 20.7422 36.3945 20.6777C36.3359 20.6074 36.2832 20.5723 36.2363 20.5723C36.1426 20.5723 36.0342 20.6279 35.9111 20.7393C35.7939 20.8447 35.668 20.9854 35.5332 21.1611C35.4043 21.3369 35.2695 21.5361 35.1289 21.7588C34.9941 21.9756 34.8652 22.1924 34.7422 22.4092C34.625 22.626 34.5137 22.834 34.4082 23.0332C34.3086 23.2266 34.2295 23.3877 34.1709 23.5166C34.0537 23.7627 33.9365 23.9268 33.8193 24.0088C33.7021 24.0967 33.582 24.1406 33.459 24.1406C33.2891 24.1406 33.1514 24.0908 33.0459 23.9912C32.9463 23.8857 32.8965 23.7393 32.8965 23.5518C32.8965 23.5107 32.9023 23.4316 32.9141 23.3145C32.9258 23.1914 32.9404 23.0479 32.958 22.8838C32.9756 22.7139 32.9932 22.5322 33.0107 22.3389C33.0283 22.1455 33.0459 21.9551 33.0635 21.7676C33.0811 21.5742 33.0957 21.3955 33.1074 21.2314C33.1191 21.0674 33.125 20.9297 33.125 20.8184C33.125 20.6719 33.1191 20.5312 33.1074 20.3965C33.0957 20.2617 33.0723 20.1797 33.0371 20.1504C32.9844 20.168 32.8906 20.2793 32.7559 20.4844C32.6211 20.6836 32.4482 21.0381 32.2373 21.5479C32.208 21.6123 32.1641 21.6621 32.1055 21.6973C32.0469 21.7324 31.9854 21.75 31.9209 21.75C31.8213 21.75 31.7422 21.7178 31.6836 21.6533C31.625 21.583 31.5957 21.5039 31.5957 21.416C31.5957 21.375 31.6045 21.3311 31.6221 21.2842C31.8857 20.6572 32.1318 20.1973 32.3604 19.9043C32.5947 19.6055 32.8262 19.4561 33.0547 19.4561C33.1895 19.4561 33.3037 19.4912 33.3975 19.5615C33.4912 19.626 33.5645 19.7139 33.6172 19.8252C33.6758 19.9365 33.7168 20.0596 33.7402 20.1943C33.7695 20.3291 33.7842 20.4668 33.7842 20.6074C33.7842 20.7129 33.7754 20.877 33.7578 21.0996C33.7461 21.3223 33.7285 21.5625 33.7051 21.8203C33.6816 22.0723 33.6582 22.3242 33.6348 22.5762C33.6172 22.8281 33.5996 23.0391 33.582 23.209ZM42.8281 24.8613C43.9297 23.4258 44.6943 22.2334 45.1221 21.2842C45.1514 21.2197 45.1895 21.1729 45.2363 21.1436C45.2891 21.1084 45.3477 21.0908 45.4121 21.0908C45.5117 21.0908 45.5938 21.126 45.6582 21.1963C45.7227 21.2607 45.7549 21.3369 45.7549 21.4248C45.7549 21.4658 45.7461 21.5068 45.7285 21.5479C45.4707 22.1338 45.1045 22.7871 44.6299 23.5078C44.1553 24.2285 43.5547 25.043 42.8281 25.9512C42.8281 26.3203 42.8311 26.6895 42.8369 27.0586C42.8428 27.4277 42.8457 27.832 42.8457 28.2715C42.8457 28.7109 42.834 29.1445 42.8105 29.5723C42.793 30.0059 42.7578 30.416 42.7051 30.8027C42.6523 31.1953 42.5791 31.5557 42.4854 31.8838C42.3975 32.2178 42.2803 32.5049 42.1338 32.7451C41.9932 32.9912 41.8203 33.1816 41.6152 33.3164C41.416 33.457 41.1787 33.5273 40.9033 33.5273C40.5107 33.5273 40.209 33.3779 39.998 33.0791C39.7871 32.7803 39.6816 32.3555 39.6816 31.8047C39.6816 31.5117 39.708 31.1924 39.7607 30.8467C39.8193 30.5068 39.9014 30.1553 40.0068 29.792C40.1123 29.4287 40.2383 29.0596 40.3848 28.6846C40.5371 28.3154 40.7041 27.9551 40.8857 27.6035C41.0674 27.252 41.2637 26.915 41.4746 26.5928C41.6914 26.2705 41.9199 25.9775 42.1602 25.7139C42.166 25.3037 42.1689 24.8965 42.1689 24.4922C42.1748 24.0879 42.1836 23.7158 42.1953 23.376C42.0195 23.5986 41.8086 23.7744 41.5625 23.9033C41.3223 24.0322 41.082 24.0967 40.8418 24.0967C40.6367 24.0967 40.4492 24.0586 40.2793 23.9824C40.1152 23.9004 39.9746 23.7891 39.8574 23.6484C39.7402 23.502 39.6494 23.332 39.585 23.1387C39.5205 22.9453 39.4883 22.7344 39.4883 22.5059C39.4883 22.0488 39.5645 21.6475 39.7168 21.3018C39.875 20.9502 40.0742 20.6572 40.3145 20.4229C40.5547 20.1885 40.8184 20.0127 41.1055 19.8955C41.3984 19.7783 41.6797 19.7197 41.9492 19.7197C42.1309 19.7197 42.2979 19.7432 42.4502 19.79C42.6025 19.8369 42.7314 19.8896 42.8369 19.9482C42.9482 20.0068 43.0332 20.0625 43.0918 20.1152C43.1504 20.168 43.1826 20.1973 43.1885 20.2031C43.2529 20.2734 43.2852 20.3525 43.2852 20.4404C43.2852 20.5283 43.2529 20.6074 43.1885 20.6777C43.124 20.7422 43.0479 20.7744 42.96 20.7744C42.8779 20.7744 42.7988 20.7422 42.7227 20.6777C42.6992 20.6602 42.667 20.6367 42.626 20.6074C42.5908 20.5723 42.541 20.5371 42.4766 20.502C42.418 20.4668 42.3447 20.4375 42.2568 20.4141C42.1748 20.3906 42.0752 20.3789 41.958 20.3789C41.7822 20.3789 41.5889 20.4199 41.3779 20.502C41.167 20.5781 40.9707 20.7012 40.7891 20.8711C40.6074 21.041 40.4551 21.2607 40.332 21.5303C40.209 21.7939 40.1475 22.1133 40.1475 22.4883C40.1475 22.7695 40.209 22.998 40.332 23.1738C40.4551 23.3438 40.6455 23.4287 40.9033 23.4287C41.0264 23.4287 41.1553 23.3936 41.29 23.3232C41.4307 23.2529 41.5654 23.1445 41.6943 22.998C41.8232 22.8516 41.9346 22.667 42.0283 22.4443C42.1279 22.2217 42.1982 21.958 42.2393 21.6533C42.251 21.5713 42.2891 21.5039 42.3535 21.4512C42.418 21.3926 42.4941 21.3633 42.582 21.3633C42.6816 21.3633 42.7578 21.3984 42.8105 21.4688C42.8691 21.5391 42.8984 21.6182 42.8984 21.7061C42.8984 21.7119 42.8955 21.8027 42.8896 21.9785C42.8838 22.1484 42.8779 22.377 42.8721 22.6641C42.8662 22.9512 42.8574 23.2852 42.8457 23.666C42.8398 24.041 42.834 24.4395 42.8281 24.8613ZM42.1602 26.7861C41.8848 27.167 41.6357 27.5801 41.4131 28.0254C41.1904 28.4766 41 28.9307 40.8418 29.3877C40.6836 29.8447 40.5605 30.2871 40.4727 30.7148C40.3906 31.1484 40.3496 31.5352 40.3496 31.875C40.3496 32.0918 40.3672 32.2646 40.4023 32.3936C40.4434 32.5225 40.4902 32.6221 40.543 32.6924C40.6016 32.7627 40.6631 32.8096 40.7275 32.833C40.7979 32.8564 40.8623 32.8682 40.9209 32.8682C41.1025 32.8682 41.2607 32.7949 41.3955 32.6484C41.5303 32.502 41.6445 32.3057 41.7383 32.0596C41.832 31.8193 41.9082 31.541 41.9668 31.2246C42.0254 30.9082 42.0693 30.5801 42.0986 30.2402C42.1279 29.9062 42.1484 29.5723 42.1602 29.2383C42.1719 28.9043 42.1777 28.5967 42.1777 28.3154C42.1777 28.0635 42.1777 27.8115 42.1777 27.5596C42.1777 27.3076 42.1719 27.0498 42.1602 26.7861Z" fill="black"/>
<line x1="1.21913" y1="38.0239" x2="46.2191" y2="2.02391" stroke="#FF0000" stroke-width="2.5"/>
<rect x="1.5" y="1.5" width="46" height="38" stroke="#FF0000" stroke-width="3"/>
</svg>
